<?xml version="1.0" encoding="UTF-8"?>
<svg id="Layer_1" xmlns="http://www.w3.org/2000/svg" width="512" height="512" version="1.1" viewBox="0 0 512 512">
  <!-- Generator: Adobe Illustrator 29.8.2, SVG Export Plug-In . SVG Version: 2.1.1 Build 3)  -->
  <g>
    <path d="M-246,712.3l-6.5-6.5c-6-6-10.9-6.9-14.9-3s-2.6,4-2.2,6.5,1.9,5,4.5,7.7c.8.8,1.7,1.6,2.8,2.4,1.1.8,2.4,1.4,4.1,1.8,1.4.4,3.2.8,5.5,1.1,2.2.3,4.8.4,7.7.3h10.8c6.3-.3,12.3-.4,18-.3,5.7,0,10.5.4,14.5.8,4.1.6,7.8,1.4,11,2.5s6.2,2.6,8.9,4.3c1.4.9,2.8,2,4.1,3.1s2.7,2.4,4,3.7c3.7,3.7,6.7,7.5,9,11.4s3.9,7.9,4.7,12c.8,3.9.8,7.9,0,12s-2.3,8.1-4.6,11.8c-2.4,4.1-5.5,8.1-9.2,11.8-7.6,7.6-15.3,12.1-23.3,13.6-7.9,1.5-15.7-.2-23.6-5-3.9-2.3-7.8-5.4-11.8-9.4l-9.7-9.7,20.3-20.3,9.8,9.8c3.6,3.6,7.1,5.6,10.5,6.1,3.3.6,6.4-.5,9.2-3.3,1-1,1.8-2.1,2.4-3.3.6-1.2,1-2.4,1-3.6s-.2-2.3-.5-3.6-1-2.7-2-4.2c-.5-.6-1-1.3-1.6-2s-1.2-1.4-1.9-2.1c-1.3-1.3-2.5-2.3-3.6-3.1s-2.5-1.4-4.2-2c-1.7-.5-3.7-.8-5.9-.9-2.2,0-4.8,0-7.6,0s-3.2,0-5,.2c-1.8,0-3.8.2-5.9.3-6.5.4-12.3.6-17.4.6s-9.7-.3-13.9-.9c-4.1-.6-7.8-1.4-11-2.6-3.2-1.2-6.2-2.6-8.9-4.4-1.4-.9-2.7-1.9-4-3s-2.6-2.4-3.9-3.6c-3.4-3.4-6.2-6.9-8.4-10.5-2.2-3.6-3.7-7.3-4.3-11.1-1.3-7.3.2-14.6,4.4-21.8,2.1-3.6,4.9-7.2,8.6-10.8,6.9-6.9,13.9-11.2,21.1-12.8,2.4-.6,5.4-.7,9-.4s7.6,1.7,11.9,4.1c3.5,2,6.9,4.7,10.3,8.1l8.1,8.1-20.3,20.3h-.1Z"/>
    <path d="M-197.4,706.3c-6.1-6.1-10.9-12.8-14.4-20.1s-5.9-15.1-7.1-23.2c-1.2-8-1.2-16,.1-24.1s3.8-15.7,7.3-23c1.8-3.6,3.9-7.1,6.3-10.6,2.4-3.4,5.1-6.6,8.2-9.6,6.2-6.2,13-11.1,20.4-14.6s15-5.9,22.8-7.2c9.1-1.4,17.7-1.3,25.7.2s15.2,3.8,21.4,6.9c3.7,1.8,7.2,4,10.6,6.4s6.6,5.1,9.6,8.1c6,6,11,12.8,14.8,20.4,3.8,7.6,6.4,15.4,7.8,23.6,1.2,8.1,1.2,16.3,0,24.4-1.2,8.2-3.6,15.9-7.1,23-3.6,7.6-8.5,14.4-14.5,20.4s-13,11-20.5,14.6-15.2,5.9-23.1,7.1c-8.1,1.2-16.1,1.2-24.1,0s-15.9-3.8-23.6-7.7c-3.7-1.8-7.3-4-10.7-6.5-3.5-2.5-6.7-5.3-9.8-8.3v-.2ZM-175.6,684.8c3.8,3.8,8,6.9,12.8,9.3,4.8,2.5,9.6,4.1,14.4,4.8,5.3.9,10.4.9,15.3.2,4.9-.7,9.6-2.2,13.9-4.4,4.7-2.2,8.8-5.2,12.5-8.9s6.6-7.8,8.8-12.4c2.2-4.6,3.6-9.3,4.2-14.2.7-4.9.6-9.8-.2-14.8-.8-5-2.4-9.8-4.8-14.4-1.2-2.3-2.5-4.5-4.1-6.6s-3.3-4.2-5.3-6.2c-3.6-3.6-7.8-6.6-12.4-8.9-4.6-2.3-9.4-3.8-14.2-4.6-10.1-1.5-19.8,0-28.9,4.2-4.5,2.2-8.6,5.1-12.3,8.8-3,3-5.7,6.6-8.2,11s-4.2,9.6-5.1,15.5c-.7,4.9-.8,9.8,0,14.8.7,4.9,2.2,9.7,4.5,14.2,1.2,2.3,2.5,4.5,4,6.6s3.2,4.1,5,5.9h.1Z"/>
    <path d="M-22.8,642.6l-109.7-109.7,21.7-21.7,89.4,89.4,22.6-22.6,20.3,20.3s-44.3,44.3-44.3,44.3Z"/>
    <path d="M29.8,590l-109.7-109.7,21.7-21.7,109.7,109.7s-21.7,21.7-21.7,21.7Z"/>
    <path d="M-47.2,447.6l29.6-29.6c7.6-7.6,16.1-11.7,25.6-12.4,4.5-.2,9.4.4,14.4,2,5.1,1.6,9.9,3.9,14.6,7,5,3.3,10,7.4,14.9,12.4l31.2,31.2c5.1,5.1,9.2,10.1,12.4,15,3.2,4.9,5.5,9.8,6.9,14.7,1.5,5,2.2,9.7,1.9,14.2-.3,4.5-1.5,9-3.6,13.4-2,4.3-4.9,8.4-8.8,12.3l-29.6,29.6-109.7-109.7h.2ZM63.9,515.4l3-3c9-9,7.2-19.9-5.4-32.5l-31.2-31.2c-12.7-12.7-23.5-14.5-32.5-5.4l-3,3s69.1,69.1,69.1,69.1Z"/>
    <path d="M110.6,355.7l-6.5-6.5c-6-6-10.9-6.9-14.9-3s-2.6,4-2.2,6.5,1.9,5,4.5,7.7,1.7,1.6,2.8,2.4c1.1.8,2.4,1.4,4.1,1.8,1.4.4,3.2.8,5.5,1.1,2.2.3,4.8.4,7.7.3h10.8c6.3-.3,12.3-.4,18-.3,5.7,0,10.5.4,14.5.8,4.1.6,7.8,1.4,11,2.5s6.2,2.6,8.9,4.3c1.4.9,2.8,2,4.1,3.1s2.7,2.4,4,3.7c3.7,3.7,6.7,7.5,9,11.4s3.9,7.9,4.7,12c.8,3.9.8,7.9,0,12s-2.4,8.1-4.6,11.8c-2.4,4.1-5.5,8.1-9.2,11.8-7.6,7.6-15.3,12.1-23.3,13.6-7.9,1.5-15.7-.2-23.6-5-3.9-2.3-7.8-5.4-11.8-9.4l-9.7-9.7,20.3-20.3,9.8,9.8c3.6,3.6,7.1,5.6,10.5,6.1,3.3.6,6.4-.5,9.2-3.3,1-1,1.8-2.1,2.4-3.3s1-2.4,1-3.6-.2-2.3-.5-3.6c-.3-1.3-1-2.7-2-4.2-.5-.6-1-1.3-1.6-2s-1.2-1.4-1.9-2.1c-1.3-1.3-2.5-2.3-3.6-3.1-1.1-.8-2.5-1.4-4.2-2-1.7-.5-3.7-.8-5.9-.9-2.2,0-4.8-.1-7.6-.1s-3.2.1-5,.2c-1.8,0-3.8.2-5.9.3-6.5.4-12.3.6-17.4.6s-9.7-.3-13.9-.9c-4.1-.6-7.8-1.4-11-2.6s-6.2-2.6-8.9-4.4c-1.4-.9-2.7-1.9-4-3s-2.6-2.4-3.9-3.6c-3.4-3.4-6.2-6.9-8.4-10.5-2.2-3.6-3.7-7.3-4.3-11.1-1.3-7.3.2-14.6,4.4-21.8,2.1-3.6,4.9-7.2,8.6-10.8,6.9-6.9,13.9-11.2,21.1-12.8,2.4-.6,5.4-.7,9-.4,3.6.3,7.6,1.7,11.9,4.1,3.5,2,6.9,4.7,10.3,8.1l8.1,8.1-20.3,20.3h0Z"/>
    <path d="M159.1,349.7c-6.1-6.1-10.9-12.8-14.4-20.1-3.5-7.3-5.9-15.1-7.1-23.2-1.2-8-1.2-16,.1-24.1s3.8-15.7,7.3-23c1.8-3.6,3.9-7.1,6.3-10.6,2.4-3.4,5.1-6.6,8.2-9.6,6.2-6.2,13-11.1,20.4-14.6s15-5.9,22.8-7.2c9.1-1.4,17.7-1.3,25.7.2s15.2,3.8,21.4,6.9c3.7,1.8,7.2,4,10.6,6.4s6.6,5.1,9.6,8.1c6,6,11,12.8,14.8,20.4,3.8,7.6,6.4,15.4,7.8,23.6,1.2,8.1,1.2,16.3,0,24.4-1.2,8.2-3.6,15.9-7.1,23-3.6,7.6-8.5,14.4-14.5,20.4s-13,11-20.5,14.6-15.2,5.9-23.1,7.1c-8.1,1.2-16.1,1.2-24.1,0s-15.9-3.8-23.6-7.7c-3.7-1.8-7.3-4-10.7-6.5-3.5-2.5-6.7-5.3-9.8-8.3v-.2ZM181,328.2c3.7,3.7,8,6.9,12.8,9.3,4.8,2.5,9.6,4.1,14.4,4.8,5.3.9,10.4.9,15.3.2,4.9-.7,9.6-2.2,13.9-4.4,4.7-2.2,8.9-5.2,12.5-8.8s6.6-7.8,8.8-12.4c2.2-4.6,3.6-9.3,4.2-14.2.7-4.9.6-9.8-.2-14.8-.8-5-2.4-9.8-4.8-14.4-1.2-2.3-2.5-4.5-4.1-6.6-1.5-2.2-3.3-4.2-5.3-6.2-3.6-3.6-7.8-6.6-12.4-8.9-4.6-2.3-9.4-3.8-14.2-4.6-10.1-1.5-19.8-.1-28.9,4.2-4.5,2.2-8.6,5.1-12.3,8.8-2.9,3-5.7,6.6-8.2,11s-4.2,9.6-5.1,15.5c-.7,4.9-.8,9.8,0,14.8.7,4.9,2.2,9.7,4.5,14.2,1.2,2.3,2.5,4.5,4,6.6s3.2,4.1,5,5.9h.1Z"/>
    <path d="M333.8,286l-109.7-109.7,21.7-21.7,89.4,89.4,22.6-22.6,20.3,20.3-44.3,44.3Z"/>
    <path d="M386.4,233.5l-109.7-109.7,21.7-21.7,109.7,109.7-21.7,21.7h0Z"/>
    <path d="M309.4,91l29.6-29.6c7.6-7.6,16.1-11.7,25.6-12.4,4.5-.2,9.4.4,14.4,2,5.1,1.6,9.9,3.9,14.6,7,5,3.3,10,7.4,14.9,12.4l31.2,31.2c5.1,5.1,9.2,10.1,12.4,15,3.2,4.9,5.5,9.8,6.9,14.7,1.5,5,2.2,9.7,1.9,14.2-.3,4.5-1.5,9-3.5,13.4-2,4.3-4.9,8.4-8.8,12.3l-29.6,29.6-109.7-109.7h.1ZM420.5,158.8l3-3c9-9,7.2-19.9-5.4-32.5l-31.2-31.2c-12.7-12.7-23.5-14.5-32.5-5.4l-3,3,69.1,69.1Z"/>
    <path d="M467.1-.9l-6.5-6.5c-6-6-10.9-6.9-14.9-3s-2.6,4-2.2,6.5,1.9,5,4.5,7.7,1.7,1.6,2.8,2.4c1.1.8,2.4,1.4,4.1,1.8,1.4.4,3.2.8,5.5,1.1,2.2.3,4.8.4,7.7.3h10.8c6.3-.3,12.3-.4,18-.3,5.7,0,10.5.4,14.5.8,4.1.6,7.8,1.4,11,2.5s6.2,2.6,8.9,4.3c1.4.9,2.8,2,4.1,3.1s2.7,2.4,4,3.7c3.7,3.7,6.7,7.5,9,11.4,2.3,3.9,3.9,7.9,4.7,12,.8,3.9.8,7.9,0,12s-2.4,8.1-4.6,11.8c-2.4,4.1-5.5,8.1-9.2,11.8-7.6,7.6-15.3,12.1-23.3,13.6-7.9,1.5-15.7-.2-23.6-5-3.9-2.3-7.8-5.4-11.8-9.4l-9.7-9.7,20.3-20.3,9.8,9.8c3.6,3.6,7.1,5.6,10.5,6.1,3.3.6,6.4-.5,9.2-3.3,1-1,1.8-2.1,2.4-3.3.6-1.2,1-2.4,1-3.6s-.2-2.3-.5-3.6-1-2.7-2-4.2c-.5-.6-1-1.3-1.6-2s-1.2-1.4-1.9-2.1c-1.3-1.3-2.5-2.3-3.6-3.1s-2.5-1.4-4.2-2c-1.7-.5-3.7-.8-5.9-.9-2.2,0-4.8,0-7.6,0s-3.2,0-5,.2c-1.8,0-3.8.2-5.9.3-6.5.4-12.3.6-17.4.6s-9.7-.3-13.9-.9c-4.1-.6-7.8-1.4-11-2.6-3.2-1.2-6.2-2.6-8.9-4.4-1.4-.9-2.7-1.9-4-3s-2.6-2.4-3.9-3.6c-3.4-3.4-6.2-6.9-8.4-10.5-2.2-3.6-3.7-7.3-4.3-11.1-1.3-7.3.2-14.6,4.4-21.8,2.1-3.6,4.9-7.2,8.6-10.8,6.9-6.9,13.9-11.2,21.1-12.8,2.4-.6,5.4-.7,9-.4s7.6,1.7,11.9,4.1c3.5,2,6.9,4.7,10.3,8.1l8.1,8.1L467.1-.9Z"/>
    <path d="M515.7-6.9c-6.1-6.1-10.9-12.8-14.4-20.1s-5.9-15.1-7.1-23.2c-1.2-8-1.2-16,.1-24.1,1.3-8.1,3.8-15.7,7.3-23,1.8-3.6,3.9-7.1,6.3-10.6,2.4-3.4,5.1-6.6,8.2-9.6,6.2-6.2,13-11.1,20.4-14.6s15-5.9,22.8-7.2c9.1-1.4,17.7-1.3,25.7.2s15.2,3.8,21.4,6.9c3.7,1.8,7.2,4,10.6,6.4,3.4,2.4,6.6,5.1,9.6,8.1,6,6,11,12.8,14.8,20.4s6.4,15.4,7.8,23.6c1.2,8.1,1.2,16.3,0,24.4-1.2,8.2-3.6,15.9-7.1,23-3.6,7.6-8.4,14.4-14.5,20.4-6.1,6.1-13,11-20.5,14.6s-15.2,5.9-23.1,7.1c-8.1,1.2-16.1,1.2-24.1,0-8-1.2-15.9-3.8-23.6-7.7-3.7-1.8-7.3-4-10.7-6.5-3.5-2.5-6.7-5.3-9.8-8.3v-.2ZM537.6-28.4c3.7,3.7,8,6.9,12.8,9.3,4.8,2.5,9.6,4.1,14.4,4.8,5.3.9,10.4.9,15.3.2,4.9-.7,9.6-2.2,13.9-4.4,4.7-2.2,8.9-5.2,12.5-8.9s6.6-7.8,8.8-12.4,3.6-9.3,4.2-14.2c.7-4.9.6-9.8-.2-14.8s-2.4-9.8-4.8-14.4c-1.2-2.3-2.5-4.5-4.1-6.6-1.5-2.2-3.3-4.2-5.3-6.2-3.6-3.6-7.8-6.6-12.4-8.9-4.6-2.3-9.4-3.8-14.2-4.6-10.1-1.5-19.8,0-28.9,4.2-4.5,2.2-8.6,5.1-12.3,8.8-3,2.9-5.7,6.6-8.2,11s-4.2,9.6-5.1,15.5c-.7,4.9-.8,9.8,0,14.8.7,4.9,2.2,9.7,4.5,14.2,1.2,2.3,2.5,4.5,4,6.6s3.2,4.1,5,5.9h0Z"/>
    <path d="M690.4-70.6l-109.7-109.7,21.7-21.7,89.4,89.4,22.6-22.6,20.3,20.3-44.3,44.3h0Z"/>
    <path d="M743-123.1l-109.7-109.7,21.7-21.7,109.7,109.7s-21.7,21.7-21.7,21.7Z"/>
    <path d="M666-265.6l29.6-29.6c7.6-7.6,16.1-11.7,25.6-12.4,4.5-.2,9.4.4,14.4,2,5.1,1.6,9.9,3.9,14.6,7,5,3.3,10,7.4,14.9,12.4l31.2,31.2c5.1,5.1,9.2,10.1,12.4,15s5.5,9.8,6.9,14.7c1.5,5,2.2,9.7,1.9,14.2s-1.5,9-3.5,13.4c-2,4.3-4.9,8.4-8.8,12.3l-29.6,29.6-109.7-109.7h0ZM777.1-197.8l3-3c9-9,7.2-19.9-5.4-32.5l-31.2-31.2c-12.7-12.7-23.5-14.5-32.5-5.4l-3,3,69.1,69.1h0Z"/>
  </g>
  <g>
    <path d="M-294.1,454.7l-6.5-6.5c-6-6-10.9-6.9-14.9-2.9s-2.6,4-2.2,6.5,1.9,5,4.5,7.7,1.7,1.6,2.8,2.4c1.1.8,2.4,1.4,4.1,1.8,1.4.4,3.2.8,5.5,1.1,2.2.3,4.8.4,7.7.3h10.8c6.3-.3,12.3-.4,18-.3,5.7,0,10.5.4,14.5.8,4.1.6,7.8,1.4,11,2.5s6.2,2.6,8.9,4.3c1.4.9,2.8,2,4.1,3.1s2.7,2.4,4,3.7c3.7,3.7,6.7,7.5,9,11.4s3.9,7.9,4.7,12c.8,3.9.8,7.9,0,12s-2.3,8.1-4.6,11.8c-2.4,4.1-5.5,8.1-9.2,11.8-7.6,7.6-15.3,12.1-23.3,13.6-7.9,1.5-15.7-.2-23.6-5-3.9-2.3-7.8-5.4-11.8-9.4l-9.7-9.7,20.3-20.3,9.8,9.8c3.6,3.6,7.1,5.6,10.5,6.1,3.3.6,6.4-.5,9.2-3.3s1.8-2.1,2.4-3.3c.6-1.2,1-2.4,1-3.6s-.2-2.3-.5-3.6c-.3-1.3-1-2.7-2-4.2-.5-.6-1-1.3-1.6-2s-1.2-1.4-1.9-2.1c-1.3-1.3-2.5-2.3-3.6-3.1-1.1-.8-2.5-1.4-4.2-2-1.7-.5-3.7-.8-5.9-.9-2.2,0-4.8-.1-7.6-.1s-3.2.1-5,.2c-1.8,0-3.8.2-5.9.3-6.5.4-12.3.6-17.4.6s-9.7-.3-13.9-.9c-4.1-.6-7.8-1.4-11-2.6s-6.2-2.6-8.9-4.4c-1.4-.9-2.7-1.9-4-3s-2.6-2.4-3.9-3.6c-3.4-3.4-6.2-6.9-8.4-10.5-2.2-3.6-3.7-7.3-4.3-11.1-1.3-7.3.2-14.6,4.4-21.8,2.1-3.6,4.9-7.2,8.6-10.8,6.9-6.9,13.9-11.2,21.1-12.8,2.4-.6,5.4-.7,9-.4,3.6.3,7.6,1.7,11.9,4.1,3.5,2,6.9,4.7,10.3,8.1l8.1,8.1-20.3,20.3v-.2Z"/>
    <path d="M-245.6,448.7c-6.1-6.1-10.9-12.8-14.4-20.1-3.5-7.3-5.9-15.1-7.1-23.2-1.2-8-1.2-16,.1-24.1,1.3-8.1,3.8-15.7,7.3-23,1.8-3.6,3.9-7.1,6.3-10.6,2.4-3.4,5.1-6.6,8.2-9.6,6.2-6.2,13-11.1,20.4-14.6s15-5.9,22.8-7.2c9.1-1.4,17.7-1.3,25.7.2s15.2,3.8,21.4,6.9c3.7,1.8,7.2,4,10.6,6.4,3.4,2.4,6.6,5.1,9.6,8.1,6,6,11,12.8,14.8,20.4s6.4,15.4,7.8,23.6c1.2,8.1,1.2,16.3,0,24.4-1.2,8.2-3.6,15.9-7.1,23-3.6,7.6-8.5,14.4-14.5,20.4-6.1,6.1-13,11-20.5,14.6s-15.2,5.9-23.1,7.1c-8.1,1.2-16.1,1.2-24.1,0s-15.9-3.8-23.6-7.7c-3.7-1.8-7.3-4-10.7-6.5-3.5-2.5-6.7-5.3-9.8-8.3v-.2ZM-223.7,427.2c3.8,3.7,8,6.9,12.8,9.3,4.8,2.5,9.6,4.1,14.4,4.8,5.3.9,10.4.9,15.3.2,4.9-.7,9.6-2.2,13.9-4.4,4.7-2.2,8.8-5.2,12.5-8.8s6.6-7.8,8.8-12.4,3.6-9.3,4.2-14.2c.7-4.9.6-9.8-.2-14.8s-2.4-9.8-4.8-14.4c-1.2-2.3-2.5-4.5-4.1-6.6-1.5-2.2-3.3-4.2-5.3-6.2-3.6-3.6-7.8-6.6-12.4-8.9-4.6-2.3-9.4-3.8-14.2-4.6-10.1-1.5-19.8-.1-28.9,4.2-4.5,2.2-8.6,5.1-12.3,8.8s-5.7,6.6-8.2,11-4.2,9.6-5.1,15.5c-.7,4.9-.8,9.8,0,14.8.7,4.9,2.2,9.7,4.5,14.2,1.2,2.3,2.5,4.5,4,6.6s3.2,4.1,5,5.9h.1Z"/>
    <path d="M-70.9,385l-109.7-109.7,21.7-21.7,89.4,89.4,22.6-22.6,20.3,20.3-44.3,44.2h0Z"/>
    <path d="M-18.3,332.5l-109.7-109.7,21.7-21.7L3.3,310.8l-21.7,21.7h.1Z"/>
    <path d="M-95.3,190l29.6-29.6c7.6-7.6,16.1-11.7,25.6-12.4,4.5-.2,9.4.4,14.4,2,5.1,1.6,9.9,3.9,14.6,7,5,3.3,10,7.4,14.9,12.4l31.2,31.2c5.1,5.1,9.2,10.1,12.4,15s5.5,9.8,6.9,14.7c1.5,5,2.2,9.7,1.9,14.2s-1.5,9-3.6,13.4c-2,4.3-4.9,8.4-8.8,12.3l-29.6,29.6-109.7-109.7h.2ZM15.8,257.8l3-3c9-9,7.2-19.9-5.4-32.5l-31.2-31.2c-12.7-12.7-23.5-14.5-32.5-5.4l-3,3L15.8,257.8Z"/>
    <path d="M62.4,98.1l-6.5-6.5c-6-6-10.9-6.9-14.9-3s-2.6,4-2.2,6.5c.4,2.5,1.9,5,4.5,7.7s1.7,1.6,2.8,2.4,2.4,1.4,4.1,1.8c1.4.4,3.2.8,5.5,1.1,2.2.3,4.8.4,7.7.3h10.8c6.3-.3,12.3-.4,18-.3,5.7,0,10.5.4,14.5.8,4.1.6,7.8,1.4,11,2.5s6.2,2.6,8.9,4.3c1.4.9,2.8,2,4.1,3.1s2.7,2.4,4,3.7c3.7,3.7,6.7,7.5,9,11.4s3.9,7.9,4.7,12c.8,3.9.8,7.9,0,12s-2.4,8.1-4.6,11.8c-2.4,4.1-5.5,8.1-9.2,11.8-7.6,7.6-15.3,12.1-23.3,13.6-7.9,1.5-15.7-.2-23.6-5-3.9-2.3-7.8-5.4-11.8-9.4l-9.7-9.7,20.3-20.3,9.8,9.8c3.6,3.6,7.1,5.6,10.5,6.1,3.3.6,6.4-.5,9.2-3.3,1-1,1.8-2.1,2.4-3.3s1-2.4,1-3.6-.2-2.3-.5-3.6-1-2.7-2-4.2c-.5-.6-1-1.3-1.6-2s-1.2-1.4-1.9-2.1c-1.3-1.3-2.5-2.3-3.6-3.1s-2.5-1.4-4.2-2c-1.7-.5-3.7-.8-5.9-.9-2.2,0-4.8-.1-7.6-.1s-3.2.1-5,.2c-1.8,0-3.8.2-5.9.3-6.5.4-12.3.6-17.4.6s-9.7-.3-13.9-.9c-4.1-.6-7.8-1.4-11-2.6-3.2-1.2-6.2-2.6-8.9-4.4-1.4-.9-2.7-1.9-4-3-1.3-1.1-2.6-2.4-3.9-3.6-3.4-3.4-6.2-6.9-8.4-10.5s-3.7-7.3-4.3-11.1c-1.3-7.3.2-14.6,4.4-21.8,2.1-3.6,4.9-7.2,8.6-10.8,6.9-6.9,13.9-11.2,21.1-12.8,2.4-.6,5.4-.7,9-.4s7.6,1.7,11.9,4.1c3.5,2,6.9,4.7,10.3,8.1l8.1,8.1-20.3,20.3h0Z"/>
    <path d="M111,92.1c-6.1-6.1-10.9-12.8-14.4-20.1-3.5-7.3-5.9-15.1-7.1-23.2-1.2-8-1.2-16,0-24.1,1.3-8.1,3.8-15.7,7.3-23,1.8-3.6,3.9-7.1,6.3-10.6,2.4-3.4,5.1-6.6,8.2-9.6,6.2-6.2,13-11.1,20.4-14.6,7.4-3.5,15-5.9,22.8-7.2,9.1-1.4,17.7-1.3,25.7.2s15.2,3.8,21.4,6.9c3.7,1.8,7.2,4,10.6,6.4,3.4,2.4,6.6,5.1,9.6,8.1,6,6,11,12.8,14.8,20.4,3.8,7.6,6.4,15.4,7.8,23.6,1.2,8.1,1.2,16.3,0,24.4-1.2,8.2-3.6,15.9-7.1,23-3.6,7.6-8.5,14.4-14.5,20.4-6.1,6.1-13,11-20.5,14.6s-15.2,5.9-23.1,7.1c-8.1,1.2-16.1,1.2-24.1,0s-15.9-3.8-23.6-7.7c-3.7-1.8-7.3-4-10.7-6.5-3.5-2.5-6.7-5.3-9.8-8.3v-.2ZM132.9,70.6c3.7,3.7,8,6.9,12.8,9.3,4.8,2.5,9.6,4.1,14.4,4.8,5.3.9,10.4.9,15.3.2,4.9-.7,9.6-2.2,13.9-4.4,4.7-2.2,8.9-5.2,12.5-8.9s6.6-7.8,8.8-12.4c2.2-4.6,3.6-9.3,4.2-14.2.7-4.9.6-9.8-.2-14.8s-2.4-9.8-4.8-14.4c-1.2-2.3-2.5-4.5-4.1-6.6-1.5-2.2-3.3-4.2-5.3-6.2-3.6-3.6-7.8-6.6-12.4-8.9-4.6-2.3-9.4-3.8-14.2-4.6-10.1-1.5-19.8-.1-28.9,4.2-4.5,2.2-8.6,5.1-12.3,8.8-2.9,3-5.7,6.6-8.2,11s-4.2,9.6-5.1,15.5c-.7,4.9-.8,9.8,0,14.8.7,4.9,2.2,9.7,4.5,14.2,1.2,2.3,2.5,4.5,4,6.6,1.5,2.1,3.2,4.1,5,5.9h.1Z"/>
    <path d="M285.7,28.4l-109.7-109.7,21.7-21.7L287.1-13.5l22.6-22.6,20.3,20.3-44.3,44.3h0Z"/>
    <path d="M338.3-24.1l-109.7-109.7,21.7-21.7,109.7,109.7s-21.7,21.7-21.7,21.7Z"/>
    <path d="M261.3-166.6l29.6-29.6c7.6-7.6,16.1-11.7,25.6-12.4,4.5-.2,9.4.4,14.4,2,5.1,1.6,9.9,3.9,14.6,7,5,3.3,10,7.4,14.9,12.4l31.2,31.2c5.1,5.1,9.2,10.1,12.4,15,3.2,4.9,5.5,9.8,6.9,14.7,1.5,5,2.2,9.7,1.9,14.2-.3,4.5-1.5,9-3.5,13.4-2,4.3-4.9,8.4-8.8,12.3l-29.6,29.6-109.7-109.7h0ZM372.4-98.8l3-3c9-9,7.2-19.9-5.4-32.5l-31.2-31.2c-12.7-12.7-23.5-14.5-32.5-5.4l-3,3s69.1,69.1,69.1,69.1Z"/>
    <path d="M419-258.5l-6.5-6.5c-6-6-10.9-6.9-14.9-3s-2.6,4-2.2,6.5,1.9,5,4.5,7.7,1.7,1.6,2.8,2.4c1.1.8,2.4,1.4,4.1,1.8,1.4.4,3.2.8,5.5,1.1,2.2.3,4.8.4,7.7.3h10.8c6.3-.3,12.3-.4,18-.3,5.7,0,10.5.4,14.5.8,4.1.6,7.8,1.4,11,2.5s6.2,2.6,8.9,4.3c1.4.9,2.8,2,4.1,3.1,1.3,1.1,2.7,2.4,4,3.7,3.7,3.7,6.7,7.5,9,11.4s3.9,7.9,4.7,12c.8,3.9.8,7.9,0,12s-2.4,8.1-4.6,11.8c-2.4,4.1-5.5,8.1-9.2,11.8-7.6,7.6-15.3,12.1-23.3,13.6-7.9,1.5-15.7-.2-23.6-5-3.9-2.3-7.8-5.4-11.8-9.4l-9.7-9.7,20.3-20.3,9.8,9.8c3.6,3.6,7.1,5.6,10.5,6.1,3.3.6,6.4-.5,9.2-3.3,1-1,1.8-2.1,2.4-3.3s1-2.4,1-3.6-.2-2.3-.5-3.6-1-2.7-2-4.2c-.5-.6-1-1.3-1.6-2s-1.2-1.4-1.9-2.1c-1.3-1.3-2.5-2.3-3.6-3.1s-2.5-1.4-4.2-2c-1.7-.5-3.7-.8-5.9-.9-2.2,0-4.8-.1-7.6-.1s-3.2.1-5,.2c-1.8,0-3.8.2-5.9.3-6.5.4-12.3.6-17.4.6s-9.7-.3-13.9-.9c-4.1-.6-7.8-1.4-11-2.6-3.2-1.2-6.2-2.6-8.9-4.4-1.4-.9-2.7-1.9-4-3s-2.6-2.4-3.9-3.6c-3.4-3.4-6.2-6.9-8.4-10.5-2.2-3.6-3.7-7.3-4.3-11.1-1.3-7.3.2-14.6,4.4-21.8,2.1-3.6,4.9-7.2,8.6-10.8,6.9-6.9,13.9-11.2,21.1-12.8,2.4-.6,5.4-.7,9-.4,3.6.3,7.6,1.7,11.9,4.1,3.5,2,6.9,4.7,10.3,8.1l8.1,8.1-20.3,20.3h-.1Z"/>
    <path d="M467.6-264.5c-6.1-6.1-10.9-12.8-14.4-20.1-3.5-7.3-5.9-15.1-7.1-23.2-1.2-8-1.2-16,.1-24.1,1.3-8.1,3.8-15.7,7.3-23,1.8-3.6,3.9-7.1,6.3-10.6,2.4-3.4,5.1-6.6,8.2-9.6,6.2-6.2,13-11.1,20.4-14.6s15-5.9,22.8-7.2c9.1-1.4,17.7-1.3,25.7.2s15.2,3.8,21.4,6.9c3.7,1.8,7.2,4,10.6,6.4,3.4,2.4,6.6,5.1,9.6,8.1,6,6,11,12.8,14.8,20.4s6.4,15.4,7.8,23.6c1.2,8.1,1.2,16.3,0,24.4-1.2,8.2-3.6,15.9-7.1,23-3.6,7.6-8.4,14.4-14.5,20.4-6.1,6.1-13,11-20.5,14.6s-15.2,5.9-23.1,7.1c-8.1,1.2-16.1,1.2-24.1,0-8-1.2-15.9-3.8-23.6-7.7-3.7-1.8-7.3-4-10.7-6.5-3.5-2.5-6.7-5.3-9.8-8.3v-.2ZM489.5-285.9c3.7,3.7,8,6.9,12.8,9.3,4.8,2.5,9.6,4.1,14.4,4.8,5.3.9,10.4.9,15.3.2,4.9-.7,9.6-2.2,13.9-4.4,4.7-2.2,8.9-5.2,12.5-8.9s6.6-7.8,8.8-12.4,3.6-9.3,4.2-14.2c.7-4.9.6-9.8-.2-14.8s-2.4-9.8-4.8-14.4c-1.2-2.3-2.5-4.5-4.1-6.6-1.5-2.2-3.3-4.2-5.3-6.2-3.6-3.6-7.8-6.6-12.4-8.9-4.6-2.3-9.4-3.8-14.2-4.6-10.1-1.5-19.8-.1-28.9,4.2-4.5,2.2-8.6,5.1-12.3,8.8-3,2.9-5.7,6.6-8.2,11s-4.2,9.6-5.1,15.5c-.7,4.9-.8,9.8,0,14.8.7,4.9,2.2,9.7,4.5,14.2,1.2,2.3,2.5,4.5,4,6.6s3.2,4.1,5,5.9h0Z"/>
    <path d="M642.3-328.2l-109.7-109.7,21.7-21.7,89.4,89.4,22.6-22.6,20.3,20.3-44.3,44.3h0Z"/>
    <path d="M694.8-380.7l-109.7-109.7,21.7-21.7,109.7,109.7-21.7,21.7Z"/>
    <path d="M617.9-523.1l29.6-29.6c7.6-7.6,16.1-11.7,25.6-12.4,4.5-.2,9.4.4,14.4,2,5.1,1.6,9.9,3.9,14.6,7,5,3.3,10,7.4,14.9,12.4l31.2,31.2c5.1,5.1,9.2,10.1,12.4,15s5.5,9.8,6.9,14.7c1.5,5,2.2,9.7,1.9,14.2s-1.5,9-3.5,13.4c-2,4.3-4.9,8.4-8.8,12.3l-29.6,29.6-109.7-109.7h0ZM729-455.4l3-3c9-9,7.2-19.9-5.4-32.5l-31.2-31.2c-12.7-12.7-23.5-14.5-32.5-5.4l-3,3,69.1,69.1h0Z"/>
  </g>
  <g>
    <path d="M-199.1,966.7l-6.5-6.5c-6-6-10.9-6.9-14.9-2.9s-2.6,4-2.2,6.5c.4,2.5,1.9,5,4.5,7.7,2.6,2.7,1.7,1.6,2.8,2.4,1.1.8,2.4,1.4,4.1,1.8,1.4.4,3.2.8,5.5,1.1,2.2.3,4.8.4,7.7.3h10.8c6.3-.3,12.3-.4,18-.3,5.7,0,10.5.4,14.5.8,4.1.6,7.8,1.4,11,2.5s6.2,2.6,8.9,4.3c1.4.9,2.8,2,4.1,3.1,1.3,1.1,2.7,2.4,4,3.7,3.7,3.7,6.7,7.5,9,11.4s3.9,7.9,4.7,12c.8,3.9.8,7.9,0,12s-2.3,8.1-4.6,11.8c-2.4,4.1-5.5,8.1-9.2,11.8-7.6,7.6-15.3,12.1-23.3,13.6-7.9,1.5-15.7-.2-23.6-5-3.9-2.3-7.8-5.4-11.8-9.4l-9.7-9.7,20.3-20.3,9.8,9.8c3.6,3.6,7.1,5.6,10.5,6.1,3.3.6,6.4-.5,9.2-3.3s1.8-2.1,2.4-3.3,1-2.4,1-3.6-.2-2.3-.5-3.6-1-2.7-2-4.2c-.5-.6-1-1.3-1.6-2s-1.2-1.4-1.9-2.1c-1.3-1.3-2.5-2.3-3.6-3.1s-2.5-1.4-4.2-2c-1.7-.5-3.7-.8-5.9-.9-2.2,0-4.8,0-7.6,0s-3.2,0-5,.2c-1.8,0-3.8.2-5.9.3-6.5.4-12.3.6-17.4.6s-9.7-.3-13.9-.9c-4.1-.6-7.8-1.4-11-2.6-3.2-1.2-6.2-2.6-8.9-4.4-1.4-.9-2.7-1.9-4-3s-2.6-2.4-3.9-3.6c-3.4-3.4-6.2-6.9-8.4-10.5-2.2-3.6-3.7-7.3-4.3-11.1-1.3-7.3.2-14.6,4.4-21.8,2.1-3.6,4.9-7.2,8.6-10.8,6.9-6.9,13.9-11.2,21.1-12.8,2.4-.6,5.4-.7,9-.4s7.6,1.7,11.9,4.1c3.5,2,6.9,4.7,10.3,8.1l8.1,8.1-20.3,20.3v-.2Z"/>
    <path d="M-150.6,960.7c-6.1-6.1-10.9-12.8-14.4-20.1s-5.9-15.1-7.1-23.2c-1.2-8-1.2-16,0-24.1,1.3-8.1,3.8-15.7,7.3-23,1.8-3.6,3.9-7.1,6.3-10.6,2.4-3.4,5.1-6.6,8.2-9.6,6.2-6.2,13-11.1,20.4-14.6s15-5.9,22.8-7.2c9.1-1.4,17.7-1.3,25.7.2s15.2,3.8,21.4,6.9c3.7,1.8,7.2,4,10.6,6.4,3.4,2.4,6.6,5.1,9.6,8.1,6,6,11,12.8,14.8,20.4,3.8,7.6,6.4,15.4,7.8,23.6,1.2,8.1,1.2,16.3,0,24.4-1.2,8.2-3.6,15.9-7.1,23-3.6,7.6-8.5,14.4-14.5,20.4-6.1,6.1-13,11-20.5,14.6s-15.2,5.9-23.1,7.1c-8.1,1.2-16.1,1.2-24.1,0s-15.9-3.8-23.6-7.7c-3.7-1.8-7.3-4-10.7-6.5-3.5-2.5-6.7-5.3-9.8-8.3v-.2ZM-128.7,939.2c3.8,3.7,8,6.9,12.8,9.3,4.8,2.5,9.6,4.1,14.4,4.8,5.3.9,10.4.9,15.3.2,4.9-.7,9.6-2.2,13.9-4.4,4.7-2.2,8.8-5.2,12.5-8.8s6.6-7.8,8.8-12.4c2.2-4.6,3.6-9.3,4.2-14.2.7-4.9.6-9.8-.2-14.8s-2.4-9.8-4.8-14.4c-1.2-2.3-2.5-4.5-4.1-6.6-1.5-2.2-3.3-4.2-5.3-6.2-3.6-3.6-7.8-6.6-12.4-8.9-4.6-2.3-9.4-3.8-14.2-4.6-10.1-1.5-19.8,0-28.9,4.2-4.5,2.2-8.6,5.1-12.3,8.8s-5.7,6.6-8.2,11-4.2,9.6-5.1,15.5c-.7,4.9-.8,9.8,0,14.8.7,4.9,2.2,9.7,4.5,14.2,1.2,2.3,2.5,4.5,4,6.6s3.2,4.1,5,5.9h.1Z"/>
    <path d="M24.1,897l-109.7-109.7,21.7-21.7,89.4,89.4,22.6-22.6,20.3,20.3-44.3,44.2h0Z"/>
    <path d="M76.7,844.5l-109.7-109.7,21.7-21.7,109.7,109.7-21.7,21.7Z"/>
    <path d="M-.3,702l29.6-29.6c7.6-7.6,16.1-11.7,25.6-12.4,4.5-.2,9.4.4,14.4,2,5.1,1.6,9.9,3.9,14.6,7,5,3.3,10,7.4,14.9,12.4l31.2,31.2c5.1,5.1,9.2,10.1,12.4,15,3.2,4.9,5.5,9.8,6.9,14.7,1.5,5,2.2,9.7,1.9,14.2-.3,4.5-1.5,9-3.6,13.4-2,4.3-4.9,8.4-8.8,12.3l-29.6,29.6L-.5,702.1h.2ZM110.8,769.8l3-3c9-9,7.2-19.9-5.4-32.5l-31.2-31.2c-12.7-12.7-23.5-14.5-32.5-5.4l-3,3,69.1,69.1Z"/>
    <path d="M157.4,610.1l-6.5-6.5c-6-6-10.9-6.9-14.9-3s-2.6,4-2.2,6.5,1.9,5,4.5,7.7,1.7,1.6,2.8,2.4c1.1.8,2.4,1.4,4.1,1.8,1.4.4,3.2.8,5.5,1.1,2.2.3,4.8.4,7.7.3h10.8c6.3-.3,12.3-.4,18-.3,5.7,0,10.5.4,14.5.8,4.1.6,7.8,1.4,11,2.5s6.2,2.6,8.9,4.3c1.4.9,2.8,2,4.1,3.1,1.3,1.1,2.7,2.4,4,3.7,3.7,3.7,6.7,7.5,9,11.4s3.9,7.9,4.7,12c.8,3.9.8,7.9,0,12s-2.4,8.1-4.6,11.8c-2.4,4.1-5.5,8.1-9.2,11.8-7.6,7.6-15.3,12.1-23.3,13.6-7.9,1.5-15.7-.2-23.6-5-3.9-2.3-7.8-5.4-11.8-9.4l-9.7-9.7,20.3-20.3,9.8,9.8c3.6,3.6,7.1,5.6,10.5,6.1,3.3.6,6.4-.5,9.2-3.3s1.8-2.1,2.4-3.3c.6-1.2,1-2.4,1-3.6s-.2-2.3-.5-3.6c-.3-1.3-1-2.7-2-4.2-.5-.6-1-1.3-1.6-2s-1.2-1.4-1.9-2.1c-1.3-1.3-2.5-2.3-3.6-3.1-1.1-.8-2.5-1.4-4.2-2-1.7-.5-3.7-.8-5.9-.9-2.2,0-4.8-.1-7.6-.1s-3.2.1-5,.2c-1.8,0-3.8.2-5.9.3-6.5.4-12.3.6-17.4.6s-9.7-.3-13.9-.9c-4.1-.6-7.8-1.4-11-2.6s-6.2-2.6-8.9-4.4c-1.4-.9-2.7-1.9-4-3s-2.6-2.4-3.9-3.6c-3.4-3.4-6.2-6.9-8.4-10.5-2.2-3.6-3.7-7.3-4.3-11.1-1.3-7.3.2-14.6,4.4-21.8,2.1-3.6,4.9-7.2,8.6-10.8,6.9-6.9,13.9-11.2,21.1-12.8,2.4-.6,5.4-.7,9-.4,3.6.3,7.6,1.7,11.9,4.1,3.5,2,6.9,4.7,10.3,8.1l8.1,8.1-20.3,20.3h-.1Z"/>
    <path d="M206,604.1c-6.1-6.1-10.9-12.8-14.4-20.1-3.5-7.3-5.9-15.1-7.1-23.2-1.2-8-1.2-16,.1-24.1,1.3-8.1,3.8-15.7,7.3-23,1.8-3.6,3.9-7.1,6.3-10.6,2.4-3.4,5.1-6.6,8.2-9.6,6.2-6.2,13-11.1,20.4-14.6s15-5.9,22.8-7.2c9.1-1.4,17.7-1.3,25.7.2s15.2,3.8,21.4,6.9c3.7,1.8,7.2,4,10.6,6.4,3.4,2.4,6.6,5.1,9.6,8.1,6,6,11,12.8,14.8,20.4s6.4,15.4,7.8,23.6c1.2,8.1,1.2,16.3,0,24.4-1.2,8.2-3.6,15.9-7.1,23-3.6,7.6-8.5,14.4-14.5,20.4-6.1,6.1-13,11-20.5,14.6s-15.2,5.9-23.1,7.1c-8.1,1.2-16.1,1.2-24.1,0s-15.9-3.8-23.6-7.7c-3.7-1.8-7.3-4-10.7-6.5-3.5-2.5-6.7-5.3-9.8-8.3v-.2ZM227.9,582.6c3.7,3.8,8,6.9,12.8,9.3,4.8,2.5,9.6,4.1,14.4,4.8,5.3.9,10.4.9,15.3.2,4.9-.7,9.6-2.2,13.9-4.4,4.7-2.2,8.9-5.2,12.5-8.9s6.6-7.8,8.8-12.4,3.6-9.3,4.2-14.2c.7-4.9.6-9.8-.2-14.8s-2.4-9.8-4.8-14.4c-1.2-2.3-2.5-4.5-4.1-6.6-1.5-2.2-3.3-4.2-5.3-6.2-3.6-3.6-7.8-6.6-12.4-8.9-4.6-2.3-9.4-3.8-14.2-4.6-10.1-1.5-19.8-.1-28.9,4.2-4.5,2.2-8.6,5.1-12.3,8.8s-5.7,6.6-8.2,11-4.2,9.6-5.1,15.5c-.7,4.9-.8,9.8,0,14.8.7,4.9,2.2,9.7,4.5,14.2,1.2,2.3,2.5,4.5,4,6.6s3.2,4.1,5,5.9h.1Z"/>
    <path d="M380.7,540.4l-109.7-109.7,21.7-21.7,89.4,89.4,22.6-22.6,20.3,20.3-44.3,44.3h0Z"/>
    <path d="M433.3,487.9l-109.7-109.7,21.7-21.7,109.7,109.7-21.7,21.7Z"/>
    <path d="M356.3,345.4l29.6-29.6c7.6-7.6,16.1-11.7,25.6-12.4,4.5-.2,9.4.4,14.4,2,5.1,1.6,9.9,3.9,14.6,7,5,3.3,10,7.4,14.9,12.4l31.2,31.2c5.1,5.1,9.2,10.1,12.4,15s5.5,9.8,6.9,14.7c1.5,5,2.2,9.7,1.9,14.2s-1.5,9-3.5,13.4c-2,4.3-4.9,8.4-8.8,12.3l-29.6,29.6-109.7-109.7h0ZM467.4,413.2l3-3c9-9,7.2-19.9-5.4-32.5l-31.2-31.2c-12.7-12.7-23.5-14.5-32.5-5.4l-3,3,69.1,69.1h0Z"/>
    <path d="M514,253.5l-6.5-6.5c-6-6-10.9-6.9-14.9-3s-2.6,4-2.2,6.5c.4,2.5,1.9,5,4.5,7.7s1.7,1.6,2.8,2.4,2.4,1.4,4.1,1.8c1.4.4,3.2.8,5.5,1.1,2.2.3,4.8.4,7.7.3h10.8c6.3-.3,12.3-.4,18-.3,5.7,0,10.5.4,14.5.8,4.1.6,7.8,1.4,11,2.5s6.2,2.6,8.9,4.3c1.4.9,2.8,2,4.1,3.1s2.7,2.4,4,3.7c3.7,3.7,6.7,7.5,9,11.4,2.3,3.9,3.9,7.9,4.7,12,.8,3.9.8,7.9,0,12s-2.4,8.1-4.6,11.8c-2.4,4.1-5.5,8.1-9.2,11.8-7.6,7.6-15.3,12.1-23.3,13.6-7.9,1.5-15.7-.2-23.6-5-3.9-2.3-7.8-5.4-11.8-9.4l-9.7-9.7,20.3-20.3,9.8,9.8c3.6,3.6,7.1,5.6,10.5,6.1,3.3.6,6.4-.5,9.2-3.3,1-1,1.8-2.1,2.4-3.3.6-1.2,1-2.4,1-3.6s-.2-2.3-.5-3.6c-.3-1.3-1-2.7-2-4.2-.5-.6-1-1.3-1.6-2s-1.2-1.4-1.9-2.1c-1.3-1.3-2.5-2.3-3.6-3.1-1.1-.8-2.5-1.4-4.2-2-1.7-.5-3.7-.8-5.9-.9-2.2,0-4.8,0-7.6,0s-3.2,0-5,.2c-1.8,0-3.8.2-5.9.3-6.5.4-12.3.6-17.4.6s-9.7-.3-13.9-.9c-4.1-.6-7.8-1.4-11-2.6-3.2-1.2-6.2-2.6-8.9-4.4-1.4-.9-2.7-1.9-4-3s-2.6-2.4-3.9-3.6c-3.4-3.4-6.2-6.9-8.4-10.5s-3.7-7.3-4.3-11.1c-1.3-7.3.2-14.6,4.4-21.8,2.1-3.6,4.9-7.2,8.6-10.8,6.9-6.9,13.9-11.2,21.1-12.8,2.4-.6,5.4-.7,9-.4,3.6.3,7.6,1.7,11.9,4.1,3.5,2,6.9,4.7,10.3,8.1l8.1,8.1-20.3,20.3h0Z"/>
    <path d="M562.6,247.5c-6.1-6.1-10.9-12.8-14.4-20.1s-5.9-15.1-7.1-23.2c-1.2-8-1.2-16,0-24.1s3.8-15.7,7.3-23c1.8-3.6,3.9-7.1,6.3-10.6,2.4-3.4,5.1-6.6,8.2-9.6,6.2-6.2,13-11.1,20.4-14.6s15-5.9,22.8-7.2c9.1-1.4,17.7-1.3,25.7.2s15.2,3.8,21.4,6.9c3.7,1.8,7.2,4,10.6,6.4,3.4,2.4,6.6,5.1,9.6,8.1,6,6,11,12.8,14.8,20.4s6.4,15.4,7.8,23.6c1.2,8.1,1.2,16.3,0,24.4-1.2,8.2-3.6,15.9-7.1,23-3.6,7.6-8.4,14.4-14.5,20.4-6.1,6.1-13,11-20.5,14.6-7.5,3.6-15.2,5.9-23.1,7.1-8.1,1.2-16.1,1.2-24.1,0s-15.9-3.8-23.6-7.7c-3.7-1.8-7.3-4-10.7-6.5-3.5-2.5-6.7-5.3-9.8-8.3v-.2ZM584.5,226.1c3.7,3.7,8,6.9,12.8,9.3,4.8,2.5,9.6,4.1,14.4,4.8,5.3.9,10.4.9,15.3.2,4.9-.7,9.6-2.2,13.9-4.4,4.7-2.2,8.9-5.2,12.5-8.9s6.6-7.8,8.8-12.4,3.6-9.3,4.2-14.2c.7-4.9.6-9.8-.2-14.8s-2.4-9.8-4.8-14.4c-1.2-2.3-2.5-4.5-4.1-6.6-1.5-2.2-3.3-4.2-5.3-6.2-3.6-3.6-7.8-6.6-12.4-8.9-4.6-2.3-9.4-3.8-14.2-4.6-10.1-1.5-19.8,0-28.9,4.2-4.5,2.2-8.6,5.1-12.3,8.8-3,2.9-5.7,6.6-8.2,11s-4.2,9.6-5.1,15.5c-.7,4.9-.8,9.8,0,14.8.7,4.9,2.2,9.7,4.5,14.2,1.2,2.3,2.5,4.5,4,6.6s3.2,4.1,5,5.9h0Z"/>
    <path d="M737.3,183.8l-109.7-109.7,21.7-21.7,89.4,89.4,22.6-22.6,20.3,20.3-44.3,44.3h0Z"/>
    <path d="M789.8,131.3l-109.7-109.7L701.8,0l109.7,109.7-21.7,21.7Z"/>
    <path d="M712.9-11.1l29.6-29.6c7.6-7.6,16.1-11.7,25.6-12.4,4.5-.2,9.4.4,14.4,2,5.1,1.6,9.9,3.9,14.6,7,5,3.3,10,7.4,14.9,12.4l31.2,31.2c5.1,5.1,9.2,10.1,12.4,15,3.2,4.9,5.5,9.8,6.9,14.7,1.5,5,2.2,9.7,1.9,14.2-.3,4.5-1.5,9-3.5,13.4-2,4.3-4.9,8.4-8.8,12.3l-29.6,29.6-109.7-109.7h.1ZM824,56.6l3-3c9-9,7.2-19.9-5.4-32.5l-31.2-31.2c-12.7-12.7-23.5-14.5-32.5-5.4l-3,3,69.1,69.1Z"/>
  </g>
</svg>